<svg width="283" height="198" viewBox="0 0 283 198" fill="none" xmlns="http://www.w3.org/2000/svg">
<path d="M44.09 198C29.4725 198 20.7021 175.734 0.968526 189.554C0.237653 131.714 -0.785568 14.4985 0.968526 8.35617C2.72262 2.21381 8.03362 0.67827 10.4699 0.678296C94.7638 0.166438 265.106 -0.550164 272.122 0.678296C279.431 0.678296 281.867 6.30874 282.354 8.35617C282.842 69.5232 283.524 191.397 282.354 189.554C281.185 187.712 273.097 186.739 269.199 186.483C255.312 186.483 252.389 198 237.771 198C220.23 198 223.154 186.483 203.42 186.483C190.264 186.483 189.534 198 171.993 198C160.299 198 152.259 186.483 141.296 186.483C126.679 186.483 123.024 198 109.868 198C96.7128 198 90.8658 186.483 77.7101 186.483C66.747 183.412 62.3618 198 44.09 198Z" fill="#D9D9D9"/>
</svg>
